<mxfile host="app.diagrams.net" modified="2024-04-06T03:18:08.873Z" agent="Mozilla/5.0 (Windows NT 10.0; Win64; x64) AppleWebKit/537.36 (KHTML, like Gecko) Chrome/123.0.0.0 Safari/537.36" etag="-n3LNol-QceF8RIsyW10" version="24.2.2" type="device">
  <diagram name="페이지-1" id="bmdsd18rHNdqMLKG2W_T">
    <mxGraphModel dx="1434" dy="746" grid="1" gridSize="10" guides="1" tooltips="1" connect="1" arrows="1" fold="1" page="1" pageScale="1" pageWidth="827" pageHeight="1169" math="0" shadow="0">
      <root>
        <mxCell id="0" />
        <mxCell id="1" parent="0" />
        <mxCell id="jnhZJ5-R4hJiU_oCU_1v-18" value="" style="rounded=1;whiteSpace=wrap;html=1;" parent="1" vertex="1">
          <mxGeometry x="315" y="260" width="10" height="170" as="geometry" />
        </mxCell>
        <mxCell id="jnhZJ5-R4hJiU_oCU_1v-1" value="회원" style="shape=umlActor;verticalLabelPosition=bottom;verticalAlign=top;html=1;outlineConnect=0;" parent="1" vertex="1">
          <mxGeometry x="130" y="110" width="30" height="60" as="geometry" />
        </mxCell>
        <mxCell id="jnhZJ5-R4hJiU_oCU_1v-2" value="내정보&lt;div&gt;Info&lt;/div&gt;" style="rounded=0;whiteSpace=wrap;html=1;" parent="1" vertex="1">
          <mxGeometry x="260" y="110" width="120" height="60" as="geometry" />
        </mxCell>
        <mxCell id="jnhZJ5-R4hJiU_oCU_1v-3" value="PR DB" style="rounded=0;whiteSpace=wrap;html=1;" parent="1" vertex="1">
          <mxGeometry x="440" y="110" width="120" height="60" as="geometry" />
        </mxCell>
        <mxCell id="jnhZJ5-R4hJiU_oCU_1v-4" value="구직등록&lt;div&gt;AD&lt;/div&gt;" style="rounded=0;whiteSpace=wrap;html=1;" parent="1" vertex="1">
          <mxGeometry x="620" y="110" width="120" height="60" as="geometry" />
        </mxCell>
        <mxCell id="jnhZJ5-R4hJiU_oCU_1v-6" value="취업지원&lt;div&gt;apply&lt;/div&gt;" style="rounded=0;whiteSpace=wrap;html=1;" parent="1" vertex="1">
          <mxGeometry x="790" y="110" width="120" height="60" as="geometry" />
        </mxCell>
        <mxCell id="jnhZJ5-R4hJiU_oCU_1v-7" value="" style="endArrow=none;dashed=1;html=1;dashPattern=1 3;strokeWidth=2;rounded=0;" parent="1" edge="1">
          <mxGeometry width="50" height="50" relative="1" as="geometry">
            <mxPoint x="140" y="660" as="sourcePoint" />
            <mxPoint x="140" y="200" as="targetPoint" />
          </mxGeometry>
        </mxCell>
        <mxCell id="jnhZJ5-R4hJiU_oCU_1v-8" value="" style="endArrow=none;dashed=1;html=1;dashPattern=1 3;strokeWidth=2;rounded=0;" parent="1" source="jnhZJ5-R4hJiU_oCU_1v-18" edge="1">
          <mxGeometry width="50" height="50" relative="1" as="geometry">
            <mxPoint x="319.5" y="550" as="sourcePoint" />
            <mxPoint x="319.5" y="200" as="targetPoint" />
          </mxGeometry>
        </mxCell>
        <mxCell id="jnhZJ5-R4hJiU_oCU_1v-9" value="" style="endArrow=none;dashed=1;html=1;dashPattern=1 3;strokeWidth=2;rounded=0;" parent="1" source="QnPHmIGpQM0JAGKw9TL2-6" edge="1">
          <mxGeometry width="50" height="50" relative="1" as="geometry">
            <mxPoint x="680" y="670" as="sourcePoint" />
            <mxPoint x="679.5" y="200" as="targetPoint" />
          </mxGeometry>
        </mxCell>
        <mxCell id="jnhZJ5-R4hJiU_oCU_1v-10" value="" style="endArrow=none;dashed=1;html=1;dashPattern=1 3;strokeWidth=2;rounded=0;" parent="1" edge="1">
          <mxGeometry width="50" height="50" relative="1" as="geometry">
            <mxPoint x="500" y="670" as="sourcePoint" />
            <mxPoint x="499.5" y="200" as="targetPoint" />
          </mxGeometry>
        </mxCell>
        <mxCell id="jnhZJ5-R4hJiU_oCU_1v-12" value="" style="endArrow=classic;html=1;rounded=0;" parent="1" edge="1">
          <mxGeometry width="50" height="50" relative="1" as="geometry">
            <mxPoint x="140" y="280" as="sourcePoint" />
            <mxPoint x="320" y="280" as="targetPoint" />
          </mxGeometry>
        </mxCell>
        <mxCell id="jnhZJ5-R4hJiU_oCU_1v-13" value="PR 등록" style="text;html=1;align=center;verticalAlign=middle;resizable=0;points=[];autosize=1;strokeColor=none;fillColor=none;" parent="1" vertex="1">
          <mxGeometry x="185" y="248" width="70" height="30" as="geometry" />
        </mxCell>
        <mxCell id="jnhZJ5-R4hJiU_oCU_1v-14" value="" style="endArrow=classic;html=1;rounded=0;" parent="1" edge="1">
          <mxGeometry width="50" height="50" relative="1" as="geometry">
            <mxPoint x="330" y="320" as="sourcePoint" />
            <mxPoint x="500" y="320" as="targetPoint" />
          </mxGeometry>
        </mxCell>
        <mxCell id="jnhZJ5-R4hJiU_oCU_1v-15" value="PR 정보 조회" style="text;html=1;align=center;verticalAlign=middle;resizable=0;points=[];autosize=1;strokeColor=none;fillColor=none;" parent="1" vertex="1">
          <mxGeometry x="365" y="288" width="90" height="30" as="geometry" />
        </mxCell>
        <mxCell id="jnhZJ5-R4hJiU_oCU_1v-16" value="" style="endArrow=none;dashed=1;html=1;dashPattern=1 3;strokeWidth=2;rounded=0;startArrow=classic;startFill=1;" parent="1" edge="1">
          <mxGeometry width="50" height="50" relative="1" as="geometry">
            <mxPoint x="330" y="400" as="sourcePoint" />
            <mxPoint x="500" y="400" as="targetPoint" />
          </mxGeometry>
        </mxCell>
        <mxCell id="jnhZJ5-R4hJiU_oCU_1v-17" value="PR 상세 정보" style="edgeLabel;html=1;align=center;verticalAlign=middle;resizable=0;points=[];" parent="jnhZJ5-R4hJiU_oCU_1v-16" vertex="1" connectable="0">
          <mxGeometry x="-0.0222" y="1" relative="1" as="geometry">
            <mxPoint as="offset" />
          </mxGeometry>
        </mxCell>
        <mxCell id="jnhZJ5-R4hJiU_oCU_1v-19" value="" style="endArrow=none;dashed=1;html=1;dashPattern=1 3;strokeWidth=2;rounded=0;" parent="1" target="jnhZJ5-R4hJiU_oCU_1v-18" edge="1" source="QnPHmIGpQM0JAGKw9TL2-3">
          <mxGeometry width="50" height="50" relative="1" as="geometry">
            <mxPoint x="320" y="670" as="sourcePoint" />
            <mxPoint x="319.5" y="200" as="targetPoint" />
          </mxGeometry>
        </mxCell>
        <mxCell id="jnhZJ5-R4hJiU_oCU_1v-20" value="" style="endArrow=none;dashed=1;html=1;dashPattern=1 3;strokeWidth=2;rounded=0;startArrow=classic;startFill=1;" parent="1" edge="1">
          <mxGeometry width="50" height="50" relative="1" as="geometry">
            <mxPoint x="145" y="420" as="sourcePoint" />
            <mxPoint x="315" y="420" as="targetPoint" />
          </mxGeometry>
        </mxCell>
        <mxCell id="jnhZJ5-R4hJiU_oCU_1v-21" value="내정보 목록" style="edgeLabel;html=1;align=center;verticalAlign=middle;resizable=0;points=[];" parent="jnhZJ5-R4hJiU_oCU_1v-20" vertex="1" connectable="0">
          <mxGeometry x="-0.0222" y="1" relative="1" as="geometry">
            <mxPoint as="offset" />
          </mxGeometry>
        </mxCell>
        <mxCell id="jnhZJ5-R4hJiU_oCU_1v-22" value="" style="endArrow=classic;html=1;rounded=0;" parent="1" edge="1">
          <mxGeometry width="50" height="50" relative="1" as="geometry">
            <mxPoint x="145" y="480" as="sourcePoint" />
            <mxPoint x="315" y="480" as="targetPoint" />
          </mxGeometry>
        </mxCell>
        <mxCell id="jnhZJ5-R4hJiU_oCU_1v-23" value="PR 목록 확인" style="text;html=1;align=center;verticalAlign=middle;resizable=0;points=[];autosize=1;strokeColor=none;fillColor=none;" parent="1" vertex="1">
          <mxGeometry x="185" y="448" width="90" height="30" as="geometry" />
        </mxCell>
        <mxCell id="jnhZJ5-R4hJiU_oCU_1v-24" value="" style="endArrow=classic;html=1;rounded=0;" parent="1" edge="1">
          <mxGeometry width="50" height="50" relative="1" as="geometry">
            <mxPoint x="315" y="520" as="sourcePoint" />
            <mxPoint x="670" y="520" as="targetPoint" />
          </mxGeometry>
        </mxCell>
        <mxCell id="jnhZJ5-R4hJiU_oCU_1v-25" value="구직 이력서 등록" style="text;html=1;align=center;verticalAlign=middle;resizable=0;points=[];autosize=1;strokeColor=none;fillColor=none;" parent="1" vertex="1">
          <mxGeometry x="445" y="488" width="110" height="30" as="geometry" />
        </mxCell>
        <mxCell id="jnhZJ5-R4hJiU_oCU_1v-29" value="" style="endArrow=classic;html=1;rounded=0;" parent="1" edge="1">
          <mxGeometry width="50" height="50" relative="1" as="geometry">
            <mxPoint x="692" y="520" as="sourcePoint" />
            <mxPoint x="830" y="520" as="targetPoint" />
          </mxGeometry>
        </mxCell>
        <mxCell id="jnhZJ5-R4hJiU_oCU_1v-30" value="취업 지원" style="text;html=1;align=center;verticalAlign=middle;resizable=0;points=[];autosize=1;strokeColor=none;fillColor=none;" parent="1" vertex="1">
          <mxGeometry x="720" y="488" width="70" height="30" as="geometry" />
        </mxCell>
        <mxCell id="jnhZJ5-R4hJiU_oCU_1v-33" value="" style="endArrow=none;dashed=1;html=1;dashPattern=1 3;strokeWidth=2;rounded=0;startArrow=classic;startFill=1;exitX=1;exitY=0.75;exitDx=0;exitDy=0;" parent="1" edge="1" source="QnPHmIGpQM0JAGKw9TL2-3">
          <mxGeometry width="50" height="50" relative="1" as="geometry">
            <mxPoint x="670" y="559.5" as="sourcePoint" />
            <mxPoint x="840" y="559.5" as="targetPoint" />
          </mxGeometry>
        </mxCell>
        <mxCell id="jnhZJ5-R4hJiU_oCU_1v-34" value="취업지원 확인 응답" style="edgeLabel;html=1;align=center;verticalAlign=middle;resizable=0;points=[];" parent="jnhZJ5-R4hJiU_oCU_1v-33" vertex="1" connectable="0">
          <mxGeometry x="-0.0222" y="1" relative="1" as="geometry">
            <mxPoint as="offset" />
          </mxGeometry>
        </mxCell>
        <mxCell id="jnhZJ5-R4hJiU_oCU_1v-35" value="" style="endArrow=none;dashed=1;html=1;dashPattern=1 3;strokeWidth=2;rounded=0;startArrow=classic;startFill=1;entryX=0;entryY=0.75;entryDx=0;entryDy=0;" parent="1" target="jnhZJ5-R4hJiU_oCU_1v-31" edge="1">
          <mxGeometry width="50" height="50" relative="1" as="geometry">
            <mxPoint x="140" y="585" as="sourcePoint" />
            <mxPoint x="305" y="594" as="targetPoint" />
          </mxGeometry>
        </mxCell>
        <mxCell id="jnhZJ5-R4hJiU_oCU_1v-36" value="취업지원 확인 응답" style="edgeLabel;html=1;align=center;verticalAlign=middle;resizable=0;points=[];" parent="jnhZJ5-R4hJiU_oCU_1v-35" vertex="1" connectable="0">
          <mxGeometry x="-0.0222" y="1" relative="1" as="geometry">
            <mxPoint as="offset" />
          </mxGeometry>
        </mxCell>
        <mxCell id="QnPHmIGpQM0JAGKw9TL2-4" value="" style="endArrow=none;dashed=1;html=1;dashPattern=1 3;strokeWidth=2;rounded=0;" edge="1" parent="1" target="QnPHmIGpQM0JAGKw9TL2-3">
          <mxGeometry width="50" height="50" relative="1" as="geometry">
            <mxPoint x="320" y="670" as="sourcePoint" />
            <mxPoint x="320" y="430" as="targetPoint" />
          </mxGeometry>
        </mxCell>
        <mxCell id="QnPHmIGpQM0JAGKw9TL2-3" value="" style="rounded=1;whiteSpace=wrap;html=1;" vertex="1" parent="1">
          <mxGeometry x="315" y="530" width="10" height="40" as="geometry" />
        </mxCell>
        <mxCell id="QnPHmIGpQM0JAGKw9TL2-5" value="" style="endArrow=none;dashed=1;html=1;dashPattern=1 3;strokeWidth=2;rounded=0;" edge="1" parent="1">
          <mxGeometry width="50" height="50" relative="1" as="geometry">
            <mxPoint x="840.5" y="670" as="sourcePoint" />
            <mxPoint x="840" y="200" as="targetPoint" />
          </mxGeometry>
        </mxCell>
        <mxCell id="jnhZJ5-R4hJiU_oCU_1v-31" value="" style="rounded=1;whiteSpace=wrap;html=1;" parent="1" vertex="1">
          <mxGeometry x="835" y="513" width="10" height="100" as="geometry" />
        </mxCell>
        <mxCell id="QnPHmIGpQM0JAGKw9TL2-7" value="" style="endArrow=none;dashed=1;html=1;dashPattern=1 3;strokeWidth=2;rounded=0;" edge="1" parent="1" target="QnPHmIGpQM0JAGKw9TL2-6">
          <mxGeometry width="50" height="50" relative="1" as="geometry">
            <mxPoint x="680" y="670" as="sourcePoint" />
            <mxPoint x="679.5" y="200" as="targetPoint" />
          </mxGeometry>
        </mxCell>
        <mxCell id="QnPHmIGpQM0JAGKw9TL2-6" value="" style="rounded=1;whiteSpace=wrap;html=1;" vertex="1" parent="1">
          <mxGeometry x="675" y="500" width="10" height="40" as="geometry" />
        </mxCell>
      </root>
    </mxGraphModel>
  </diagram>
</mxfile>
